<svg version="1.1" id="Layer_1" xmlns="http://www.w3.org/2000/svg" xmlns:xlink="http://www.w3.org/1999/xlink" x="0px" y="0px"
	 width="100%" viewBox="0 0 53 62" enable-background="new 0 0 53 62" xml:space="preserve">
<path fill="#0A151F" opacity="1.000000" stroke="none" 
	d="
M39.011639,63.000000 
	C26.009493,63.000000 13.509753,63.000000 1.007510,63.000000 
	C1.005007,42.337105 1.005007,21.674206 1.002502,1.008481 
	C18.662527,1.005654 36.325058,1.005654 53.990692,1.002826 
	C53.993793,21.662096 53.993793,42.324196 53.993793,63.000000 
	C49.171352,63.000000 44.342701,63.000000 39.011639,63.000000 
M31.740450,42.740040 
	C40.097790,45.432571 48.619659,40.950180 50.505051,32.870102 
	C51.447674,28.830360 43.476601,20.009005 37.393715,18.438538 
	C31.377462,18.438538 25.361210,18.438538 18.075594,18.438538 
	C21.854309,23.355913 24.448317,26.731585 26.291370,29.940500 
	C21.216717,28.369154 12.255946,33.990612 10.141918,40.535439 
	C9.526612,42.440369 9.632817,45.334793 10.697544,46.896877 
	C15.689275,54.220341 20.883148,58.041447 28.652151,49.916958 
	C29.338686,49.199005 29.984365,48.407806 30.782396,47.837154 
	C33.035172,46.226246 32.318687,44.617146 31.740450,42.740040 
z"/>
<path fill="#337E7E" opacity="1.000000" stroke="none" 
	d="
M27.042324,30.107256 
	C24.448317,26.731585 21.854309,23.355913 18.075594,18.438538 
	C25.361210,18.438538 31.377462,18.438538 37.441772,18.948498 
	C35.987644,21.249168 34.485458,23.039881 32.720833,24.928799 
	C33.814075,27.418798 35.169758,29.810596 36.528774,32.208275 
	C35.386135,34.049377 34.157364,36.029259 32.969181,38.008286 
	C33.009766,38.007431 33.040119,37.932125 32.697445,37.897324 
	C32.213993,38.253082 32.073215,38.643642 31.973827,39.024689 
	C32.015217,39.015179 32.033897,38.932323 31.690910,38.899910 
	C31.209446,39.258415 31.070971,39.649326 30.970585,40.025318 
	C31.008675,40.010399 31.012098,39.928654 30.654327,39.830704 
	C27.116808,39.866249 25.357122,46.067394 19.970629,41.667854 
	C22.851580,39.138126 25.208372,37.068653 27.634123,34.924133 
	C27.703081,34.849083 27.997370,34.567081 28.215446,34.287624 
	C30.554607,31.672583 30.109985,30.302628 26.947742,30.001047 
	C26.982336,30.033596 27.042324,30.107256 27.042324,30.107256 
z"/>
<path fill="#317575" opacity="1.000000" stroke="none" 
	d="
M32.983269,24.830593 
	C34.485458,23.039881 35.987644,21.249168 37.740017,19.239372 
	C43.476601,20.009005 51.447674,28.830360 50.505051,32.870102 
	C48.619659,40.950180 40.097790,45.432571 31.373350,42.863609 
	C31.006250,42.987175 31.016207,43.080547 31.136765,42.698090 
	C31.175581,41.519970 31.093840,40.724312 31.012100,39.928654 
	C31.012098,39.928654 31.008675,40.010399 31.240540,39.941700 
	C31.659571,39.559444 31.846735,39.245884 32.033897,38.932323 
	C32.033897,38.932323 32.015217,39.015179 32.245171,38.944290 
	C32.663456,38.559639 32.851788,38.245884 33.040119,37.932125 
	C33.040119,37.932125 33.009766,38.007431 33.349606,38.038620 
	C40.048031,40.897892 41.696659,35.138687 45.202843,32.129230 
	C41.768547,28.081825 38.903908,23.938822 32.983269,24.830593 
z"/>
<path fill="#347F7F" opacity="1.000000" stroke="none" 
	d="
M27.997370,34.567081 
	C27.997370,34.567081 27.703081,34.849083 27.310314,34.651241 
	C21.024078,32.557686 18.567711,37.398693 15.093335,40.381699 
	C12.342419,42.743565 12.616982,44.781181 15.318487,46.762383 
	C17.728619,48.529896 19.183374,53.436985 23.522728,49.073524 
	C25.763536,46.820267 28.502386,45.062298 31.016205,43.080544 
	C31.016207,43.080547 31.006250,42.987175 30.963322,42.968201 
	C32.318687,44.617146 33.035172,46.226246 30.782396,47.837154 
	C29.984365,48.407806 29.338686,49.199005 28.652151,49.916958 
	C20.883148,58.041447 15.689275,54.220341 10.697544,46.896877 
	C9.632817,45.334793 9.526612,42.440369 10.141918,40.535439 
	C12.255946,33.990612 21.216717,28.369154 26.666847,30.023878 
	C27.042324,30.107256 26.982336,30.033596 27.138992,30.370697 
	C27.529554,31.994225 27.763462,33.280655 27.997370,34.567081 
z"/>
<path fill="#0A151F" opacity="1.000000" stroke="none" 
	d="
M31.136765,42.698086 
	C28.502386,45.062298 25.763536,46.820267 23.522728,49.073524 
	C19.183374,53.436985 17.728619,48.529896 15.318487,46.762383 
	C12.616982,44.781181 12.342419,42.743565 15.093335,40.381699 
	C18.567711,37.398693 21.024078,32.557686 27.241356,34.726292 
	C25.208372,37.068653 22.851580,39.138126 19.970629,41.667854 
	C25.357122,46.067394 27.116808,39.866249 30.654329,39.830704 
	C31.093840,40.724312 31.175581,41.519970 31.136765,42.698086 
z"/>
<path fill="#0A151F" opacity="1.000000" stroke="none" 
	d="
M32.720833,24.928799 
	C38.903908,23.938822 41.768547,28.081825 45.202843,32.129230 
	C41.696659,35.138687 40.048031,40.897892 33.309021,38.039474 
	C34.157364,36.029259 35.386135,34.049377 36.528774,32.208275 
	C35.169758,29.810596 33.814075,27.418798 32.720833,24.928799 
z"/>
<path fill="#0A151F" opacity="1.000000" stroke="none" 
	d="
M28.215446,34.287624 
	C27.763462,33.280655 27.529554,31.994225 27.104401,30.338146 
	C30.109985,30.302628 30.554607,31.672583 28.215446,34.287624 
z"/>
<path fill="#0A151F" opacity="1.000000" stroke="none" 
	d="
M32.697445,37.897324 
	C32.851788,38.245884 32.663456,38.559639 32.203781,38.953800 
	C32.073215,38.643642 32.213993,38.253082 32.697445,37.897324 
z"/>
<path fill="#0A151F" opacity="1.000000" stroke="none" 
	d="
M31.690910,38.899910 
	C31.846735,39.245884 31.659571,39.559444 31.202450,39.956619 
	C31.070971,39.649326 31.209446,39.258415 31.690910,38.899910 
z"/>
</svg>